<?xml version="1.0" ?><!DOCTYPE svg  PUBLIC '-//W3C//DTD SVG 1.1//EN'  'http://www.w3.org/Graphics/SVG/1.1/DTD/svg11.dtd'><svg enable-background="new 0 0 141.732 141.732" height="141.732px" id="圖層_1" version="1.1" viewBox="0 0 141.732 141.732" width="141.732px" xml:space="preserve" xmlns="http://www.w3.org/2000/svg" xmlns:xlink="http://www.w3.org/1999/xlink"><g><g><path d="M49.269,93.401c-3.001-0.001-5.896-0.993-8.305-2.877c-0.573-0.447-1.124-0.966-1.675-1.571l-0.092-0.098    c-0.414-0.464-0.783-0.933-1.11-1.416L24.682,66.503c-0.196-0.307-0.178-0.704,0.047-0.992l4.839-6.19    c0.226-0.289,0.611-0.404,0.958-0.283l23.423,8.081c1.252,0.432,2.415,1.064,3.458,1.879c5.81,4.543,7.095,12.979,2.865,18.805    c-2.184,3.009-5.409,4.948-9.08,5.464C50.548,93.356,49.906,93.401,49.269,93.401 M26.459,66.09l13.063,20.403    c0.271,0.4,0.594,0.809,0.943,1.201l0.087,0.092c0.493,0.543,0.974,0.996,1.469,1.383c2.551,1.994,5.722,2.844,8.93,2.393    c3.205-0.45,6.021-2.145,7.928-4.77c3.692-5.086,2.557-12.461-2.532-16.439c-0.893-0.696-1.888-1.238-2.959-1.608l-22.843-7.88    L26.459,66.09z M56.872,69.675h0.005H56.872z" fill="#EA5514"/><path d="M49.269,94.031L49.269,94.031c-3.169-0.001-6.175-1.042-8.693-3.011c-0.597-0.466-1.17-1.004-1.752-1.644    l-0.084-0.089c-0.457-0.512-0.836-0.996-1.174-1.496L24.151,66.843c-0.34-0.531-0.308-1.222,0.081-1.72l4.84-6.19    c0.386-0.495,1.068-0.695,1.662-0.49l23.421,8.08c1.315,0.454,2.541,1.119,3.64,1.979c6.074,4.75,7.414,13.574,2.987,19.671    c-2.285,3.147-5.659,5.178-9.502,5.718C50.612,93.983,49.936,94.031,49.269,94.031z M30.261,59.63    c-0.105,0-0.16,0.031-0.196,0.078l-4.84,6.19c-0.06,0.077-0.064,0.184-0.013,0.265L38.617,87.1    c0.297,0.439,0.644,0.881,1.05,1.337l0.08,0.084c0.542,0.596,1.064,1.086,1.604,1.507c2.779,2.174,6.253,3.106,9.752,2.614    c3.501-0.491,6.576-2.342,8.658-5.21c3.92-5.398,2.868-13.15-2.285-17.563c-0.049,0.152-0.154,0.279-0.292,0.356    c4.967,4.26,5.983,11.733,2.205,16.938c-2.008,2.765-4.973,4.549-8.35,5.023c-0.586,0.082-1.181,0.124-1.767,0.124h0    c-2.783,0-5.424-0.914-7.637-2.645c-0.521-0.406-1.027-0.883-1.548-1.455l-0.078-0.083c-0.39-0.438-0.725-0.864-1.007-1.28    L25.929,66.43c-0.145-0.226-0.131-0.518,0.034-0.728l4.085-5.226c0.166-0.213,0.448-0.297,0.702-0.208l22.843,7.88    c0.951,0.329,1.848,0.786,2.672,1.361c0.042-0.155,0.141-0.287,0.274-0.37c-0.862-0.604-1.801-1.082-2.797-1.426L30.32,59.633    C30.299,59.631,30.279,59.63,30.261,59.63z M27.23,66.126l12.823,20.027c0.243,0.357,0.543,0.739,0.883,1.122l0.074,0.078    c0.48,0.528,0.935,0.957,1.399,1.318c1.99,1.556,4.362,2.378,6.862,2.378h0c0.528,0,1.063-0.038,1.592-0.112    c3.035-0.426,5.701-2.03,7.506-4.516c3.496-4.815,2.415-11.801-2.41-15.573c-0.84-0.654-1.774-1.163-2.777-1.509l-22.418-7.733    L27.23,66.126z" fill="#EA5514"/></g><g><path d="M26.252,65.816c-0.185,0-0.372-0.06-0.529-0.183l-6.375-4.982c-0.077,0.119-0.16,0.236-0.248,0.349    c-1.604,2.053-4.582,2.418-6.635,0.813c-0.995-0.779-1.627-1.897-1.781-3.15c-0.154-1.253,0.189-2.491,0.968-3.486    c0.778-0.994,1.896-1.627,3.149-1.78c0.299-0.036,0.598-0.045,0.892-0.026c-0.46-1.44-0.224-3.076,0.776-4.354    c0.778-0.995,1.896-1.628,3.149-1.781c1.252-0.152,2.493,0.191,3.486,0.968c0.996,0.778,1.627,1.896,1.782,3.149    c0.153,1.254-0.191,2.492-0.968,3.486c-0.106,0.136-0.219,0.266-0.34,0.389l6.382,4.987c0.179,0.142,0.296,0.348,0.323,0.574    c0.028,0.227-0.035,0.454-0.176,0.634l-3.178,4.065C26.761,65.704,26.508,65.816,26.252,65.816 M21.662,55.911    c-0.223-0.175-0.346-0.447-0.329-0.729s0.171-0.537,0.414-0.685c0.32-0.192,0.594-0.435,0.816-0.719    c0.495-0.633,0.713-1.421,0.615-2.217c-0.098-0.798-0.5-1.509-1.132-2.004c-0.632-0.494-1.421-0.712-2.217-0.615    c-0.798,0.098-1.509,0.5-2.003,1.132c-1.021,1.307-0.79,3.2,0.517,4.222c0.27,0.209,0.577,0.373,0.915,0.484    c0.266,0.087,0.473,0.298,0.554,0.566c0.082,0.269,0.027,0.56-0.145,0.78l-0.341,0.436c-0.172,0.22-0.44,0.338-0.722,0.329    c-0.28-0.014-0.536-0.164-0.684-0.401c-0.189-0.3-0.421-0.56-0.691-0.771c-0.633-0.495-1.422-0.711-2.218-0.616    c-0.797,0.098-1.508,0.5-2.003,1.133c-0.495,0.633-0.713,1.42-0.616,2.218c0.098,0.797,0.5,1.509,1.132,2.003    c1.306,1.021,3.2,0.789,4.221-0.518c0.207-0.264,0.368-0.565,0.478-0.896c0.089-0.264,0.301-0.469,0.568-0.55    c0.268-0.082,0.558-0.026,0.777,0.146l6.536,5.109l2.118-2.709L21.662,55.911z" fill="#EA5514"/><path d="M26.252,66.446c-0.331,0-0.656-0.112-0.917-0.316l-5.865-4.585c-1.02,1.209-2.502,1.898-4.099,1.898    c-1.205,0-2.344-0.392-3.293-1.134c-1.128-0.883-1.845-2.15-2.018-3.57c-0.175-1.42,0.215-2.823,1.097-3.95    c0.882-1.128,2.149-1.844,3.569-2.018c0.059-0.008,0.118-0.014,0.177-0.019c-0.228-1.455,0.151-2.949,1.071-4.125    c0.881-1.128,2.149-1.845,3.568-2.019c1.435-0.176,2.827,0.218,3.95,1.097c1.126,0.881,1.844,2.147,2.019,3.568    c0.169,1.384-0.196,2.75-1.027,3.86l5.864,4.583c0.316,0.25,0.515,0.604,0.561,0.996c0.048,0.393-0.06,0.783-0.305,1.097    l-3.178,4.064C27.142,66.238,26.714,66.446,26.252,66.446z M19.349,60.021c0.14,0,0.276,0.047,0.388,0.134l6.375,4.982    c0.103,0.078,0.198,0.123,0.324-0.039l3.177-4.064c0.038-0.049,0.054-0.108,0.047-0.169c-0.007-0.063-0.04-0.118-0.089-0.157    l-6.379-4.985c-0.142-0.11-0.229-0.275-0.241-0.454c-0.012-0.18,0.053-0.354,0.179-0.483c0.104-0.105,0.202-0.218,0.293-0.335    c0.674-0.862,0.972-1.936,0.839-3.022c-0.134-1.086-0.683-2.056-1.544-2.729c-0.86-0.672-1.928-0.974-3.021-0.839    c-1.085,0.133-2.054,0.682-2.729,1.544c-0.835,1.067-1.086,2.479-0.672,3.775c0.063,0.198,0.024,0.415-0.104,0.579    s-0.334,0.26-0.536,0.241c-0.257-0.016-0.516-0.009-0.776,0.022c-1.085,0.133-2.054,0.681-2.729,1.543    c-0.674,0.862-0.972,1.936-0.839,3.021c0.133,1.086,0.681,2.056,1.544,2.731c0.725,0.566,1.596,0.866,2.517,0.866    c1.274,0,2.453-0.572,3.234-1.571c0.076-0.098,0.148-0.2,0.215-0.304c0.096-0.148,0.25-0.249,0.424-0.278    C19.279,60.024,19.314,60.021,19.349,60.021z M26.104,64.379c-0.136,0-0.272-0.044-0.388-0.134l-6.536-5.109    c-0.058-0.044-0.134-0.061-0.205-0.039c-0.075,0.022-0.132,0.078-0.156,0.148c-0.133,0.398-0.328,0.764-0.579,1.083    c-0.693,0.887-1.738,1.396-2.868,1.396c-0.819,0-1.592-0.267-2.236-0.771c-0.765-0.597-1.251-1.457-1.369-2.423    c-0.118-0.964,0.146-1.916,0.745-2.682s1.459-1.252,2.423-1.37c0.988-0.115,1.922,0.15,2.683,0.745    c0.326,0.255,0.607,0.568,0.835,0.931c0.041,0.065,0.108,0.104,0.182,0.108c0.08-0.001,0.151-0.033,0.195-0.089l0.34-0.436    c0.046-0.059,0.06-0.137,0.039-0.209c-0.022-0.071-0.077-0.127-0.147-0.15c-0.405-0.133-0.776-0.33-1.105-0.585    c-1.582-1.237-1.862-3.527-0.627-5.107c0.598-0.765,1.458-1.251,2.423-1.369c0.977-0.122,1.919,0.148,2.681,0.744    c0.766,0.6,1.252,1.46,1.37,2.424c0.119,0.963-0.146,1.915-0.744,2.681c-0.27,0.346-0.602,0.639-0.987,0.871    c-0.064,0.039-0.105,0.105-0.109,0.183c-0.005,0.075,0.028,0.148,0.089,0.196l6.56,5.128c0.131,0.103,0.217,0.254,0.237,0.42    c0.021,0.165-0.026,0.333-0.129,0.464l-2.118,2.709C26.477,64.296,26.292,64.379,26.104,64.379z M19.041,57.827    c0.331,0,0.656,0.112,0.917,0.316l6.039,4.722l1.342-1.717l-6.065-4.741c-0.386-0.304-0.599-0.775-0.569-1.264    c0.03-0.487,0.297-0.931,0.715-1.185c0.255-0.153,0.472-0.344,0.646-0.568c0.392-0.501,0.564-1.123,0.487-1.752    c-0.077-0.631-0.396-1.193-0.896-1.585c-0.499-0.389-1.12-0.561-1.752-0.486c-0.63,0.077-1.192,0.396-1.583,0.895    c-0.807,1.033-0.624,2.53,0.409,3.338c0.213,0.165,0.458,0.294,0.724,0.382c0.46,0.15,0.82,0.519,0.96,0.983    c0.141,0.463,0.047,0.968-0.251,1.35l-0.341,0.436c-0.285,0.363-0.718,0.571-1.188,0.571c-0.546-0.024-0.99-0.285-1.248-0.698    c-0.149-0.236-0.333-0.441-0.544-0.607c-0.498-0.39-1.118-0.559-1.755-0.487c-0.628,0.077-1.19,0.396-1.582,0.896    c-0.391,0.501-0.564,1.123-0.487,1.754c0.078,0.63,0.396,1.192,0.895,1.583c1.002,0.784,2.556,0.591,3.336-0.409    c0.163-0.207,0.29-0.445,0.377-0.708c0.154-0.457,0.521-0.813,0.982-0.952C18.748,57.849,18.894,57.827,19.041,57.827z" fill="#EA5514"/></g><g><path d="M84.716,108.935c-0.062,0-0.124,0-0.186,0l-40.945-0.221c-5.564-0.031-10.861-2.446-14.533-6.629    c-3.671-4.181-5.38-9.747-4.689-15.269c0.004-0.029,0.01-0.06,0.016-0.088c1.089-4.693,2.831-9.218,5.177-13.448    c0.147-0.266,0.422-0.434,0.725-0.441c0.313-0.008,0.587,0.14,0.752,0.396l8.489,13.259c0.271,0.4,0.594,0.81,0.943,1.201    l0.087,0.092c0.493,0.543,0.974,0.996,1.469,1.383c2.551,1.994,5.724,2.843,8.93,2.393c3.206-0.45,6.02-2.145,7.927-4.77    c3.692-5.086,2.65-12.252-2.374-16.313c-0.771-0.624-2.309-1.457-3.358-1.818l-14.915-5.146c-0.278-0.096-0.489-0.329-0.557-0.616    c-0.067-0.287,0.017-0.589,0.223-0.799c5.636-5.748,12.632-10.165,20.233-12.772l12.95-4.443    c11.48-3.941,28.367-0.244,37.644,8.239c5.371,4.913,7.665,8.896,9.091,15.79c0.078,0.383,0.15,0.763,0.216,1.145    c1.646,9.578-1.054,19.369-7.405,26.863C104.15,104.563,94.715,108.935,84.716,108.935 M81.445,45.01    c-3.482,0-6.835,0.483-9.805,1.503l-12.95,4.442c-6.918,2.373-13.317,6.297-18.59,11.386l13.609,4.694    c1.092,0.376,2.842,1.268,3.878,2.106c5.735,4.637,6.915,12.835,2.684,18.66c-2.184,3.008-5.408,4.948-9.08,5.464    c-3.674,0.521-7.307-0.456-10.229-2.741c-0.573-0.447-1.124-0.965-1.674-1.57l-0.092-0.099c-0.414-0.464-0.783-0.934-1.11-1.416    l-7.711-12.044c-1.917,3.704-3.366,7.627-4.31,11.679c-0.615,5.019,0.943,10.074,4.28,13.876c3.347,3.813,8.177,6.015,13.25,6.042    l40.945,0.222c0.059,0.001,0.117,0.001,0.176,0.001c9.492,0,18.449-4.151,24.598-11.406c6.021-7.105,8.581-16.384,7.021-25.46    c-0.062-0.361-0.131-0.725-0.205-1.087c-1.357-6.566-3.439-10.18-8.566-14.868C101.107,48.488,90.8,45.01,81.445,45.01" fill="#EA5514"/><path d="M84.716,109.564h-0.186l-40.948-0.221c-5.745-0.032-11.213-2.526-15.002-6.843    c-3.79-4.316-5.555-10.062-4.841-15.763c0.002-0.021,0.022-0.128,0.026-0.147c1.104-4.756,2.867-9.336,5.241-13.616    c0.253-0.458,0.736-0.752,1.26-0.766c0,0,0.001,0,0.001,0c0.551,0,1.021,0.256,1.296,0.685l8.49,13.26    c0.245,0.361,0.545,0.743,0.883,1.122l0.074,0.078c0.48,0.528,0.935,0.957,1.399,1.318c2.409,1.884,5.421,2.689,8.455,2.266    c3.033-0.426,5.699-2.029,7.505-4.516c3.496-4.815,2.503-11.603-2.26-15.452c-0.712-0.577-2.192-1.377-3.167-1.713l-14.916-5.146    c-0.485-0.167-0.846-0.566-0.964-1.067c-0.118-0.501,0.026-1.019,0.386-1.385c5.705-5.817,12.786-10.288,20.478-12.927    l12.95-4.443c3.116-1.07,6.649-1.612,10.501-1.612c10.24,0,21.141,3.918,27.771,9.982c5.484,5.017,7.826,9.086,9.283,16.127    c0.079,0.392,0.153,0.777,0.22,1.166c1.677,9.762-1.073,19.74-7.546,27.377C104.517,105.104,94.898,109.564,84.716,109.564z     M30.305,73.469c-0.087,0.002-0.158,0.046-0.197,0.116c-2.317,4.179-4.038,8.648-5.114,13.286    c-0.673,5.367,0.98,10.753,4.533,14.798c3.552,4.047,8.678,6.385,14.063,6.415l41.127,0.221c9.811,0,19.079-4.297,25.43-11.79    c6.23-7.352,8.879-16.956,7.265-26.35c-0.064-0.375-0.135-0.749-0.212-1.125c-1.395-6.741-3.64-10.641-8.898-15.451    c-6.412-5.863-16.979-9.652-26.922-9.652c-3.712,0-7.108,0.52-10.092,1.544l-12.95,4.443c-7.508,2.576-14.42,6.938-19.988,12.618    c-0.055,0.055-0.077,0.137-0.059,0.214c0.018,0.075,0.075,0.139,0.148,0.164l14.916,5.146c1.125,0.388,2.717,1.251,3.549,1.925    c5.284,4.271,6.376,11.813,2.487,17.172c-2.009,2.766-4.975,4.549-8.35,5.023c-3.369,0.472-6.727-0.428-9.405-2.521    c-0.521-0.406-1.027-0.883-1.548-1.455l-0.078-0.083c-0.387-0.434-0.721-0.859-1.007-1.28l-8.498-13.272    C30.458,73.504,30.392,73.469,30.305,73.469z M84.716,107.845l-41.124-0.223c-5.253-0.028-10.253-2.309-13.719-6.256    c-3.454-3.936-5.069-9.172-4.432-14.368c0.966-4.164,2.434-8.143,4.375-11.893c0.104-0.199,0.306-0.329,0.531-0.339    c0.222-0.027,0.438,0.099,0.559,0.289L38.617,87.1c0.304,0.447,0.65,0.889,1.05,1.336l0.083,0.09    c0.538,0.59,1.06,1.08,1.601,1.502c2.784,2.179,6.261,3.11,9.752,2.614c3.501-0.491,6.576-2.342,8.659-5.21    c4.034-5.555,2.905-13.374-2.57-17.8c-0.971-0.786-2.67-1.65-3.688-2.001l-13.609-4.694c-0.207-0.071-0.362-0.246-0.41-0.46    s0.02-0.437,0.178-0.589c5.333-5.147,11.843-9.134,18.823-11.528l12.95-4.442c2.971-1.02,6.338-1.537,10.009-1.537    c9.782,0,20.201,3.748,26.544,9.549c5.241,4.793,7.37,8.488,8.759,15.205c0.075,0.371,0.146,0.741,0.209,1.109    c1.591,9.258-1.02,18.725-7.162,25.973C103.532,103.606,94.391,107.845,84.716,107.845z M30.441,76.666    c-1.65,3.367-2.914,6.911-3.762,10.551c-0.582,4.774,0.923,9.652,4.141,13.318c3.228,3.677,7.886,5.801,12.779,5.827l41.117,0.223    c9.304,0,18.094-4.076,24.117-11.184c5.9-6.963,8.409-16.056,6.881-24.946c-0.061-0.355-0.128-0.712-0.201-1.067    c-1.326-6.414-3.36-9.944-8.374-14.529c-6.124-5.601-16.209-9.219-25.694-9.219c-3.531,0-6.761,0.494-9.6,1.469l-12.95,4.442    c-6.484,2.225-12.55,5.856-17.606,10.533l12.626,4.355c1.143,0.394,2.977,1.329,4.069,2.213c5.997,4.848,7.226,13.422,2.798,19.52    c-2.286,3.147-5.66,5.178-9.502,5.718c-3.824,0.542-7.651-0.48-10.704-2.869c-0.598-0.467-1.171-1.004-1.752-1.643l-0.087-0.094    c-0.44-0.492-0.831-0.99-1.17-1.491L30.441,76.666z" fill="#EA5514"/></g><g><path d="M43.556,59.063c-0.09,0-0.18-0.013-0.268-0.042c-0.272-0.089-0.482-0.308-0.56-0.583l-2.46-8.655    c-0.101-0.352,0.033-0.728,0.332-0.938l6.418-4.531c0.301-0.211,0.702-0.209,1,0.005l8.401,6.06    c0.254,0.184,0.388,0.49,0.351,0.802c-0.038,0.312-0.242,0.577-0.533,0.694c-4.356,1.754-8.445,4.111-12.152,7.007    C43.932,59.001,43.745,59.063,43.556,59.063 M47.509,46.073l-5.419,3.825l1.949,6.856c3.147-2.338,6.544-4.309,10.13-5.879    L47.509,46.073z" fill="#EA5514"/><path d="M43.556,59.693c-0.162,0-0.319-0.025-0.467-0.074c-0.468-0.153-0.831-0.53-0.967-1.009l-2.46-8.655    c-0.173-0.605,0.057-1.26,0.574-1.625l6.418-4.531c0.514-0.361,1.226-0.354,1.73,0.008l8.402,6.061    c0.439,0.317,0.672,0.849,0.608,1.387c-0.065,0.54-0.419,1.001-0.923,1.204c-4.303,1.732-8.34,4.061-12,6.919    C44.213,59.581,43.887,59.693,43.556,59.693z M47.514,44.786c-0.034,0-0.084,0.008-0.135,0.043l-6.417,4.53    c-0.08,0.057-0.116,0.157-0.089,0.251l2.46,8.656c0.021,0.074,0.077,0.133,0.15,0.156l0.072,0.011    c0.051,0,0.101-0.018,0.141-0.049c3.753-2.932,7.893-5.318,12.305-7.095c0.078-0.031,0.133-0.103,0.143-0.186    c0.01-0.084-0.026-0.167-0.094-0.216l-8.401-6.06C47.6,44.794,47.548,44.786,47.514,44.786z M44.038,57.385    c-0.068,0-0.137-0.011-0.203-0.033c-0.196-0.066-0.347-0.226-0.403-0.425l-1.949-6.856c-0.073-0.257,0.024-0.532,0.243-0.687    l5.419-3.825c0.221-0.155,0.513-0.152,0.732,0.004l6.66,4.803c0.183,0.132,0.282,0.353,0.258,0.577    c-0.024,0.226-0.167,0.42-0.374,0.511c-3.538,1.55-6.905,3.503-10.007,5.808C44.304,57.343,44.171,57.385,44.038,57.385z     M42.817,50.155l1.58,5.559c2.675-1.916,5.534-3.582,8.519-4.965l-5.411-3.902L42.817,50.155z" fill="#EA5514"/></g><g><path d="M42.219,49.615c-0.27,0-0.536-0.127-0.704-0.364l-4.666-6.609c-0.109,0.092-0.222,0.18-0.338,0.263    c-2.129,1.502-5.084,0.992-6.587-1.137c-1.504-2.13-0.994-5.085,1.136-6.589c1.324-0.934,2.97-1.09,4.388-0.562    c-0.005-0.294,0.018-0.593,0.069-0.89c0.214-1.243,0.901-2.331,1.932-3.059c2.129-1.505,5.085-0.993,6.588,1.136    c0.728,1.031,1.011,2.286,0.796,3.529c-0.214,1.244-0.901,2.33-1.932,3.059c-0.14,0.099-0.287,0.19-0.438,0.273l4.671,6.616    c0.274,0.389,0.182,0.926-0.206,1.2l-4.215,2.975C42.563,49.563,42.391,49.615,42.219,49.615 M40.432,38.77    c-0.163-0.231-0.202-0.527-0.104-0.794c0.098-0.264,0.319-0.465,0.594-0.536c0.361-0.092,0.694-0.245,0.988-0.452    c0.656-0.464,1.093-1.154,1.229-1.946c0.136-0.791-0.043-1.588-0.506-2.244c-0.957-1.354-2.836-1.68-4.19-0.723    c-0.656,0.464-1.092,1.153-1.229,1.945c-0.136,0.791,0.043,1.59,0.508,2.246c0.196,0.278,0.444,0.523,0.735,0.727    c0.229,0.161,0.367,0.423,0.368,0.703c0.001,0.28-0.135,0.544-0.365,0.705l-0.451,0.318c-0.229,0.161-0.522,0.201-0.786,0.107    s-0.464-0.312-0.54-0.581c-0.095-0.344-0.242-0.659-0.438-0.938c-0.956-1.354-2.836-1.679-4.19-0.722    c-1.354,0.956-1.679,2.836-0.723,4.189c0.956,1.355,2.835,1.68,4.19,0.724c0.274-0.193,0.516-0.437,0.716-0.72    c0.161-0.228,0.423-0.363,0.702-0.363h0.001c0.278,0,0.541,0.136,0.702,0.364l4.784,6.776l2.809-1.983L40.432,38.77z" fill="#EA5514"/><path d="M42.219,50.245c-0.483,0-0.939-0.235-1.218-0.63l-4.293-6.083c-0.871,0.566-1.874,0.864-2.914,0.864    c-1.743,0-3.382-0.847-4.384-2.266c-0.824-1.168-1.144-2.588-0.901-3.999c0.243-1.412,1.021-2.644,2.188-3.468    c1.208-0.852,2.738-1.162,4.172-0.867c0.008-0.06,0.018-0.118,0.028-0.178c0.243-1.409,1.021-2.641,2.189-3.465    c0.906-0.641,1.972-0.979,3.082-0.979c1.743,0,3.382,0.848,4.384,2.267c0.826,1.17,1.146,2.59,0.902,4    c-0.235,1.37-0.979,2.573-2.096,3.398l4.292,6.079c0.474,0.671,0.313,1.604-0.357,2.077l-4.215,2.976    C42.823,50.15,42.527,50.245,42.219,50.245z M36.85,42.012c0.027,0,0.054,0.002,0.08,0.005c0.175,0.022,0.333,0.117,0.435,0.262    l4.666,6.609c0.146,0.204,0.251,0.105,0.323,0.054l4.214-2.974c0.104-0.073,0.128-0.218,0.055-0.322l-4.671-6.616    c-0.104-0.146-0.14-0.33-0.099-0.505c0.04-0.175,0.153-0.324,0.31-0.41c0.131-0.072,0.257-0.151,0.379-0.236    c0.894-0.632,1.488-1.573,1.674-2.65c0.186-1.079-0.059-2.165-0.69-3.06c-0.767-1.085-2.021-1.733-3.355-1.733    c-0.848,0-1.662,0.259-2.355,0.749c-0.895,0.631-1.489,1.572-1.675,2.651c-0.044,0.254-0.064,0.514-0.06,0.771    c0.003,0.208-0.096,0.405-0.266,0.525c-0.171,0.12-0.389,0.15-0.583,0.075c-1.26-0.469-2.706-0.287-3.805,0.486    c-0.892,0.63-1.486,1.572-1.672,2.652c-0.187,1.08,0.058,2.166,0.688,3.059c0.766,1.085,2.021,1.732,3.354,1.732    c0.848,0,1.662-0.258,2.355-0.747c0.1-0.071,0.199-0.148,0.295-0.229C36.558,42.063,36.702,42.012,36.85,42.012z M42.425,48.186    c-0.036,0-0.071-0.003-0.107-0.009c-0.165-0.028-0.312-0.121-0.408-0.258l-4.784-6.776c-0.043-0.061-0.113-0.098-0.188-0.098    h-0.001c-0.075,0-0.145,0.036-0.188,0.098c-0.244,0.344-0.536,0.637-0.868,0.87c-0.615,0.435-1.339,0.664-2.092,0.664    c-1.183,0-2.295-0.575-2.975-1.539c-0.56-0.792-0.776-1.756-0.611-2.714c0.166-0.958,0.693-1.794,1.485-2.354    c0.615-0.435,1.339-0.665,2.093-0.665c1.183,0,2.295,0.575,2.976,1.538c0.238,0.338,0.417,0.72,0.531,1.135    c0.02,0.071,0.073,0.13,0.143,0.154c0.129,0.016,0.174-0.001,0.213-0.029l0.45-0.317c0.062-0.044,0.099-0.113,0.098-0.188    c0-0.075-0.038-0.146-0.1-0.189c-0.351-0.245-0.65-0.541-0.888-0.88c-0.561-0.791-0.779-1.756-0.613-2.715    c0.165-0.957,0.693-1.793,1.486-2.354c0.616-0.435,1.34-0.665,2.093-0.665c1.183,0,2.295,0.575,2.976,1.539    c0.56,0.793,0.777,1.757,0.612,2.714c-0.165,0.957-0.692,1.793-1.486,2.354c-0.36,0.253-0.762,0.438-1.196,0.548    c-0.071,0.019-0.132,0.073-0.158,0.145c-0.026,0.07-0.015,0.15,0.029,0.213l4.802,6.802c0.201,0.284,0.133,0.677-0.151,0.878    l-2.809,1.983C42.682,48.146,42.555,48.186,42.425,48.186z M36.938,39.785c0.483,0,0.938,0.235,1.217,0.631l4.421,6.262    l1.78-1.257l-4.439-6.288c-0.282-0.401-0.349-0.914-0.181-1.374c0.17-0.46,0.554-0.806,1.027-0.929    c0.288-0.073,0.55-0.193,0.783-0.357c0.519-0.366,0.863-0.913,0.971-1.538c0.107-0.626-0.035-1.256-0.4-1.774    c-0.728-1.03-2.277-1.304-3.313-0.571c-0.519,0.366-0.864,0.913-0.972,1.538c-0.108,0.627,0.035,1.257,0.401,1.774    c0.155,0.22,0.35,0.413,0.581,0.574c0.399,0.28,0.636,0.735,0.637,1.219c0.001,0.485-0.235,0.942-0.633,1.222l-0.45,0.317    c-0.394,0.277-0.907,0.347-1.36,0.187c-0.456-0.162-0.805-0.537-0.936-1.006c-0.076-0.276-0.192-0.526-0.347-0.745    c-0.727-1.026-2.277-1.302-3.312-0.569c-0.518,0.365-0.863,0.911-0.971,1.538c-0.108,0.626,0.034,1.256,0.399,1.773    c0.726,1.028,2.276,1.304,3.312,0.572c0.215-0.151,0.405-0.343,0.565-0.569C36.001,40.021,36.456,39.785,36.938,39.785z" fill="#EA5514"/></g><g><path d="M72.227,135.398c-32.454,0-58.857-15.783-58.857-35.183c0-8.506,5.115-16.707,14.404-23.092    c0.316-0.218,0.74-0.198,1.037,0.048c0.296,0.246,0.393,0.658,0.237,1.01c-1.275,2.884-2.278,5.876-2.981,8.893    c-0.615,5.02,0.943,10.074,4.28,13.876c3.348,3.813,8.177,6.015,13.25,6.042l40.945,0.222c0.059,0.001,0.114,0.001,0.174,0.001    c16.322,0,30.325-12.507,31.916-28.544c0.03-0.308,0.224-0.575,0.506-0.701c0.283-0.125,0.611-0.09,0.861,0.094    c8.439,6.225,13.086,14.092,13.086,22.152C131.083,119.615,104.681,135.398,72.227,135.398 M118.157,80.35    c-2.378,16.179-16.758,28.587-33.442,28.585c-0.061,0-0.123,0-0.184,0l-40.944-0.222c-5.564-0.03-10.861-2.445-14.533-6.628    c-3.671-4.182-5.38-9.747-4.689-15.269c0.003-0.028,0.01-0.06,0.016-0.088c0.5-2.152,1.146-4.291,1.931-6.391    c-7.26,5.745-11.22,12.719-11.22,19.878c0,18.45,25.63,33.462,57.136,33.462c31.505,0,57.137-15.012,57.137-33.462    C129.364,92.986,125.496,86.142,118.157,80.35" fill="#EA5514"/><path d="M72.227,136.028c-32.801,0-59.487-16.065-59.487-35.813c0-8.72,5.212-17.105,14.677-23.611    c0.534-0.367,1.295-0.333,1.795,0.082c0.511,0.425,0.68,1.145,0.411,1.75c-1.258,2.845-2.248,5.799-2.944,8.781    c-0.582,4.773,0.923,9.651,4.141,13.317c3.229,3.677,7.887,5.801,12.779,5.827l41.115,0.223c15.989,0,29.733-12.289,31.289-27.977    c0.053-0.53,0.388-0.996,0.876-1.214c0.491-0.218,1.063-0.152,1.491,0.161c8.604,6.347,13.343,14.394,13.343,22.66    C131.713,119.963,105.028,136.028,72.227,136.028z M28.259,77.603c-0.032,0-0.081,0.007-0.128,0.04    C19.018,83.907,14,91.923,14,100.216c0,19.053,26.121,34.553,58.228,34.553c32.106,0,58.227-15.5,58.227-34.553    c0-7.856-4.557-15.543-12.83-21.646c-0.039-0.029-0.087-0.045-0.138-0.045c-0.169,0.054-0.221,0.125-0.229,0.207    c-1.619,16.325-15.914,29.112-32.543,29.112l-41.122-0.223c-5.252-0.028-10.253-2.309-13.719-6.256    c-3.454-3.936-5.069-9.172-4.432-14.368c0.725-3.125,1.741-6.155,3.03-9.071c0.042-0.094,0.015-0.205-0.064-0.271    C28.366,77.622,28.313,77.603,28.259,77.603z M72.227,134.308c-31.853,0-57.766-15.294-57.766-34.092    c0-7.29,4.069-14.524,11.459-20.372c0.221-0.174,0.533-0.182,0.761-0.015C26.91,79.995,27,80.293,26.9,80.559    c-0.774,2.074-1.417,4.198-1.907,6.313c-0.673,5.366,0.98,10.752,4.533,14.798c3.553,4.047,8.679,6.385,14.063,6.414l41.125,0.222    c16.361-0.001,30.47-12.059,32.819-28.047c0.032-0.223,0.182-0.41,0.391-0.493c0.209-0.085,0.445-0.05,0.623,0.091    c7.488,5.91,11.446,12.95,11.446,20.36C129.994,119.014,104.08,134.308,72.227,134.308z M24.962,82.29    c-5.978,5.317-9.242,11.616-9.242,17.926c0,18.104,25.349,32.832,56.506,32.832c31.158,0,56.507-14.729,56.507-32.832    c0-6.732-3.498-13.178-10.131-18.694c-2.902,16.063-17.276,28.042-33.885,28.043h-0.188l-40.948-0.222    c-5.745-0.031-11.213-2.525-15.003-6.842c-3.79-4.317-5.555-10.063-4.841-15.763c0.002-0.021,0.022-0.128,0.026-0.147    C24.099,85.154,24.5,83.715,24.962,82.29z" fill="#EA5514"/></g><g><path d="M72.228,129.211c-28.551,0-52.67-13.278-52.67-28.995c0-4.147,1.638-8.185,4.868-11.998    c0.235-0.277,0.622-0.379,0.963-0.248c0.341,0.131,0.562,0.462,0.553,0.826c-0.126,4.794,1.652,9.34,5.006,12.803    c3.344,3.452,7.835,5.367,12.648,5.394l40.945,0.223c0.06,0,0.119,0,0.179,0c13.957,0,26.213-8.829,30.532-22.016    c0.09-0.273,0.311-0.483,0.587-0.561c0.277-0.076,0.575-0.011,0.792,0.176c5.408,4.65,8.267,9.976,8.267,15.401    C124.897,115.933,100.777,129.211,72.228,129.211 M116.457,86.968c-4.896,13.213-17.473,21.968-31.736,21.967    c-0.063,0-0.127,0-0.189,0l-40.945-0.222c-5.278-0.028-10.206-2.13-13.875-5.918c-3.104-3.203-4.976-7.255-5.402-11.601    c-2.014,2.925-3.032,5.95-3.032,9.021c0,14.784,23.333,27.274,50.951,27.274c27.617,0,50.95-12.49,50.95-27.274    C123.177,95.626,120.859,91.066,116.457,86.968" fill="#EA5514"/><path d="M72.228,129.841c-28.892,0-53.3-13.566-53.3-29.625c0-4.301,1.688-8.475,5.018-12.405    c0.402-0.475,1.09-0.651,1.669-0.429c0.589,0.226,0.973,0.801,0.958,1.43c-0.122,4.623,1.593,9.009,4.829,12.349    c3.225,3.329,7.557,5.177,12.199,5.202l41.12,0.223c13.676,0,25.705-8.673,29.934-21.582c0.156-0.474,0.536-0.837,1.017-0.971    c0.483-0.133,1.001-0.014,1.372,0.305c5.551,4.773,8.485,10.265,8.485,15.879C125.527,116.274,101.119,129.841,72.228,129.841z     M25.093,88.554c-0.1,0-0.151,0.028-0.188,0.071c-3.131,3.697-4.719,7.597-4.719,11.591c0,15.376,23.832,28.365,52.041,28.365    c28.208,0,52.04-12.989,52.04-28.365c0-5.236-2.783-10.396-8.048-14.924c-0.041-0.035-0.094-0.055-0.15-0.055    c-0.136,0.029-0.195,0.085-0.219,0.158c-4.398,13.428-16.909,22.449-31.131,22.449h-0.179l-40.948-0.223    c-4.983-0.027-9.635-2.011-13.098-5.585c-3.473-3.586-5.313-8.294-5.183-13.258c0.002-0.097-0.057-0.187-0.148-0.222    C25.137,88.556,25.114,88.554,25.093,88.554z M72.228,128.12c-27.959,0-51.581-12.778-51.581-27.904    c0-3.193,1.058-6.35,3.143-9.379c0.15-0.217,0.42-0.316,0.676-0.253c0.256,0.066,0.444,0.285,0.47,0.549    c0.416,4.242,2.224,8.123,5.228,11.224c3.55,3.665,8.318,5.699,13.426,5.727l41.131,0.222c14.069,0,26.294-8.461,31.146-21.556    c0.073-0.197,0.24-0.346,0.445-0.395c0.203-0.045,0.42,0.009,0.575,0.152c4.527,4.216,6.921,8.956,6.921,13.709    C123.807,115.342,100.187,128.12,72.228,128.12z M23.927,92.986c-1.342,2.366-2.021,4.791-2.021,7.229    c0,14.442,23.044,26.645,50.321,26.645c27.276,0,50.32-12.202,50.32-26.645c0-4.156-2.017-8.337-5.845-12.138    c-5.252,13.085-17.702,21.486-31.98,21.486h-0.191l-40.948-0.222c-5.449-0.029-10.536-2.199-14.324-6.109    C26.468,100.353,24.645,96.838,23.927,92.986z" fill="#EA5514"/></g><g><path d="M102.908,40.641c0.475,0,0.859-0.386,0.859-0.86c0-3.049-1.434-4.623-2.699-6.011    c-1.207-1.325-2.25-2.469-2.25-4.851c0-2.383,1.043-3.527,2.25-4.852c1.266-1.389,2.699-2.963,2.699-6.011    s-1.434-4.622-2.699-6.011c-1.207-1.325-2.25-2.469-2.25-4.853c0-0.475-0.385-0.859-0.861-0.859c-0.475,0-0.859,0.385-0.859,0.859    c0,3.05,1.434,4.623,2.699,6.012c1.207,1.325,2.25,2.47,2.25,4.852c0,2.383-1.043,3.526-2.25,4.852    c-1.266,1.389-2.699,2.963-2.699,6.011s1.434,4.622,2.699,6.011c1.207,1.323,2.25,2.468,2.25,4.851    C102.046,40.255,102.432,40.641,102.908,40.641" fill="#EA5514"/><path d="M102.908,41.271c-0.822,0-1.491-0.669-1.491-1.49c0-2.14-0.92-3.148-2.086-4.426    c-1.275-1.4-2.863-3.143-2.863-6.436s1.588-5.035,2.863-6.435c1.166-1.281,2.086-2.29,2.086-4.428s-0.92-3.147-2.085-4.427    c-1.276-1.4-2.864-3.143-2.864-6.437c0-0.821,0.668-1.489,1.489-1.489c0.822,0,1.491,0.668,1.491,1.489    c0,2.139,0.92,3.147,2.084,4.426c1.277,1.402,2.865,3.145,2.865,6.438s-1.588,5.035-2.863,6.435    c-1.166,1.279-2.086,2.289-2.086,4.428c0,2.137,0.92,3.146,2.083,4.424c1.278,1.401,2.866,3.143,2.866,6.438    C104.397,40.602,103.729,41.271,102.908,41.271z M97.957,6.964c-0.127,0-0.229,0.103-0.229,0.229c0,2.806,1.289,4.22,2.535,5.588    c1.242,1.363,2.414,2.65,2.414,5.275s-1.172,3.911-2.412,5.273c-1.248,1.37-2.537,2.784-2.537,5.589s1.289,4.219,2.535,5.587    c1.241,1.36,2.414,2.646,2.414,5.274c0,0.254,0.462,0.256,0.461,0c0-2.807-1.289-4.22-2.535-5.586    c-1.242-1.365-2.414-2.651-2.414-5.275c0-2.627,1.173-3.914,2.414-5.276c1.246-1.367,2.535-2.781,2.535-5.586    s-1.289-4.219-2.535-5.587c-1.242-1.364-2.414-2.65-2.414-5.276C98.188,7.066,98.084,6.964,97.957,6.964z" fill="#EA5514"/></g><g><path d="M65.785,40.641c0.475,0,0.86-0.386,0.86-0.86c0-3.049-1.434-4.623-2.7-6.011    c-1.208-1.325-2.25-2.469-2.25-4.851c0-2.383,1.043-3.527,2.25-4.852c1.266-1.389,2.7-2.963,2.7-6.011s-1.434-4.622-2.699-6.011    c-1.208-1.325-2.251-2.469-2.251-4.853c0-0.475-0.385-0.859-0.859-0.859c-0.476,0-0.861,0.385-0.861,0.859    c0,3.05,1.435,4.623,2.7,6.012c1.208,1.325,2.25,2.47,2.25,4.852c0,2.383-1.042,3.526-2.251,4.852    c-1.265,1.389-2.699,2.963-2.699,6.011s1.435,4.622,2.699,6.011c1.208,1.323,2.251,2.468,2.251,4.851    C64.925,40.255,65.31,40.641,65.785,40.641" fill="#EA5514"/><path d="M65.785,41.271c-0.821,0-1.49-0.669-1.49-1.49c0-2.142-0.92-3.149-2.086-4.426    c-1.277-1.402-2.864-3.145-2.864-6.436s1.587-5.033,2.862-6.434c1.167-1.28,2.088-2.29,2.088-4.429s-0.92-3.148-2.086-4.428    c-1.276-1.4-2.864-3.143-2.864-6.436c0-0.821,0.669-1.489,1.491-1.489c0.821,0,1.489,0.668,1.489,1.489    c0,2.14,0.92,3.148,2.086,4.427c1.276,1.402,2.864,3.145,2.864,6.437c0,3.293-1.588,5.035-2.864,6.435    c-1.166,1.278-2.086,2.288-2.086,4.428c0,2.137,0.92,3.146,2.084,4.425c1.278,1.4,2.866,3.142,2.866,6.437    C67.275,40.602,66.606,41.271,65.785,41.271z M60.835,6.964c-0.127,0-0.231,0.103-0.231,0.229c0,2.805,1.289,4.219,2.535,5.586    c1.243,1.364,2.416,2.651,2.416,5.277c0,2.627-1.173,3.914-2.416,5.276c-1.247,1.368-2.535,2.783-2.535,5.586    s1.288,4.218,2.534,5.585c1.243,1.361,2.417,2.646,2.417,5.276c0,0.254,0.46,0.254,0.46,0c0-2.807-1.289-4.22-2.535-5.586    c-1.243-1.364-2.415-2.65-2.415-5.275c0-2.628,1.173-3.914,2.415-5.276c1.246-1.367,2.535-2.781,2.535-5.586    c0-2.804-1.289-4.219-2.535-5.587c-1.242-1.362-2.415-2.649-2.415-5.276C61.065,7.066,60.962,6.964,60.835,6.964z" fill="#EA5514"/></g></g></svg>